
<global>
amp_veltrack=0
ampeg_release=0.65
</global>

<group>
ampeg_release=0.4
group_label=Group_0-42
lpc_hicc1=42
lpc_locc1=0

<region>
hikey=B2
hivel=127
lokey=A#2
lovel=0
lpc=lrYRQ+n1q8N3BVhDuGtCwUeZDUJlfDzCutnmQPD/L8AuUgBBG5rPwOT8nMDy4ZA/F+OjPwwVpUCRBDBA+BJuPzndX8BBSWbACYZ+wLTZIkCzdEg/P2/ePy7AMEBt8SLA
lpc_rms=-50.71
offset=691
pitch_keycenter=A#2
sample=Horn_marcato_eighth_PP_A#2.opus
</region>

<region>
hikey=B3
hivel=127
lokey=A#3
lovel=0
lpc=0gPNQ4llbsTD8gpEDw0mwiNIJUPAQKDCFCoXwhm/PML+2MRBZSoAwZvGHkG4XZVBpSTJwYSdLMGAistBagJ9Qah3C8GQRDnBz3A7wTe5ZD+X6bC/ng1BQXCWfUF+9H/B
lpc_rms=-41.82
offset=150
pitch_keycenter=A#3
sample=Horn_marcato_eighth_PP_A#3.opus
</region>

<region>
hikey=B4
hivel=127
lokey=A#4
lovel=0
lpc=FTRDRMyOAsXRIexEGO4sxC3Mv0OxwarD+6aawR88sELzOXNC2xqfwgJYkkHw0lFAC3QHQjVbY8CT9/7BjOy1Qb1q2sH4/vLB7vSPQoCdCkJ5m6PChbCiwU+ZCUJT6UhB
lpc_rms=-32.67
pitch_keycenter=A#4
sample=Horn_marcato_eighth_PP_A#4.opus
</region>

<region>
hikey=C#3
hivel=127
lokey=C3
lovel=0
lpc=8r8SQ8nTqsNgek1D3WNPwOxtEkIsZS3CaosjwKVeKMDfq85ATP2hwLu0fD/lhWu+fUCrQDLNqr0boZs/49QwwF9OeMDqVTJAwbXyPxAUwz8T2ozAGjKRwOrT40Ckz5q/
lpc_rms=-50.77
offset=587
pitch_keycenter=C3
sample=Horn_marcato_eighth_PP_C3.opus
</region>

<region>
hikey=C#4
hivel=127
lokey=C4
lovel=0
lpc=Jv0pQ4qM4MPuzKtDETpdwmeFfEKkj6bC5JErQFY8JcA4JiRBTOqJQHx0C8Htczk9DEUPQIou3UAG55JAFIuvwMeLmcAcYMC/TfL5P6NWDMA48gBBb95TQBNZdsGg8/VA
lpc_rms=-47.31
offset=354
sample=Horn_marcato_eighth_PP_C4.opus
</region>

<region>
hikey=C#5
hivel=127
lokey=C5
lovel=0
lpc=SPixQzC9icTPcZxEn0cZxL7LTEMXrifDAbGDQhiyPUC8wrdBw9bKwbGenkCOF7tBqdtLwkYrgUIJiLPAzT+hwpicJ0LvFhpCJi92vnWEXcI8SC5B9F+lQiXk2MK+6D1C
lpc_rms=-36.54
offset=637
pitch_keycenter=C5
sample=Horn_marcato_eighth_PP_C5.opus
</region>

<region>
hikey=D#3
hivel=127
lokey=D3
lovel=0
lpc=7l3CQpmnY8NpqQ1Di9MpwY+85kEDI83BsRCkvkQzlcCaOyfAIoXPvx68GD/ksYBA8jJ1QFmd1D9f8zzAuZLXvjBKE7858ye/bsTevrP/AL+HKBdAdbEUwOY20j+JttS+
lpc_rms=-53.29
offset=4630
pitch_keycenter=D3
sample=Horn_marcato_eighth_PP_D3.opus
</region>

<region>
hikey=D#4
hivel=127
lokey=D4
lovel=0
lpc=jfpVQwRNEcRpj/tDvvUZw8yDvELixsbCTAsAQcUjokF92nZBAGwmwggtHUFWyblBBP98wTUfTUDr+WlBBC8vwdmHx8CnxF5Blv1gwWA+qsHdbgpCJEimQHQvucH1xgpB
lpc_rms=-44.12
offset=198
pitch_keycenter=D4
sample=Horn_marcato_eighth_PP_D4.opus
</region>

<region>
hikey=D#5
hivel=127
lokey=D5
lovel=0
lpc=jmODQwaPasTOVrBEmsWJxKwQ3EM72Z/CEDUVQhtTN8IafUBCmDtGwscg2kBtbB1C6Ma8wUZheED4UXXBsaiUQXelIb+oRzXB3MJFwNMYcUK7QBLDMelKQzcSHsN1pFtC
lpc_rms=-35.79
offset=359
pitch_keycenter=D5
sample=Horn_marcato_eighth_PP_D5.opus
</region>

<region>
hikey=F3
hivel=127
lokey=E3
lovel=0
lpc=br46Q/6E7MN3uqpDfjhAwjcGYEI35YnCCHkiv5zv0L63dQ1BMJCYwOiS00C/rLbAqlh+PyVDB8Di5glBBYAewOvbwz+Wk5rA0ss4wDDYHz+ym0y/c2/IQDeE6r4gB/6/
lpc_rms=-47.35
offset=2111
pitch_keycenter=E3
sample=Horn_marcato_eighth_PP_E3.opus
</region>

<region>
hikey=F4
hivel=127
lokey=E4
lovel=0
lpc=th5sQ+jVJcThoxpEQpZTw4rRxkLeGw7DkV5RQrp58kGupCJAbD0WwnmqhUC/p85Bs4cDwqej/0HP/ng/pTj0we32kEGhzhtBwxyAwQNer78CqL3AfPkVQmKqI8JUVXpB
lpc_rms=-42.65
offset=628
pitch_keycenter=E4
sample=Horn_marcato_eighth_PP_E4.opus
</region>

<region>
hivel=127
key=E5
lovel=0
lpc=LRhbQ7PZGMQ0rSNEd32sw/whMENR1RPDUpTLQvf8n8J+5IZCs0QOwkBlDUGdwzpAp+qiQQ7dg8BseTHCIdToQaADrkCymYxARJvmQAa/ocG5pjRBdQAlwRAp2EAa7LZA
lpc_rms=-40.59
offset=164
sample=Horn_marcato_eighth_PP_E5.opus
</region>

<region>
hikey=G2
hivel=127
lokey=F#2
lovel=0
lpc=7mTqQhbri8NqHSxD0UgvProtCkJatx/CrO6DwAYRNsHMSI9AbAe3P3Gg00DD2MM/Mt68PZSzBb/fVe2+S6GaPpZyXMDJnsW9y5g8QHSVub5nDnjAd869P9TFoUAlTF/A
lpc_rms=-52.42
offset=6426
pitch_keycenter=F#2
sample=Horn_marcato_eighth_PP_F#2.opus
</region>

<region>
hikey=G3
hivel=127
lokey=F#3
lovel=0
lpc=AeEkQ3SY6sMxLuVDzWUww5f2ZUI0qmbCr4/YQRadB8HilcO/USljP8JIIUHqX4dA8rlVwXXlDUCIAhRBD0yjwAAD78Ae6FpAdmuqv1jE6kAkZSpAgB9NwcjMUED4oTBA
lpc_rms=-45.35
offset=843
pitch_keycenter=F#3
sample=Horn_marcato_eighth_PP_F#3.opus
</region>

<region>
hikey=G4
hivel=127
lokey=F#4
lovel=0
lpc=pW1WQ4ZZHcTwnBhEZ8FGwyQhjEJTHMHCNMz/QH2NOEFlmq5Bp2c8wdQQGMFkeHVByK4uQV4eXMHz9gzAoezmwB0YC0CFCYhA/CnHvxzS+T5lO/pAuih8QVrFKcISo6pB
lpc_rms=-42.99
offset=44
pitch_keycenter=F#4
sample=Horn_marcato_eighth_PP_F#4.opus
</region>

<region>
hikey=F2
hivel=127
lokey=C2
lovel=0
lpc=fs3TQsUuecMKYhBD7WV7QbbPqEG1nQrCBpcowanrYMD7RAVB/HF1QNuGLUDmU3fA0dH2PkniV7/MtxQ/f2Orvifg4D+i6OO/ftneP+1/OsAEAqE5K2f3vSYvi0B/IizA
lpc_rms=-53.39
offset=1693
pitch_keycenter=F2
sample=Horn_marcato_eighth_PP_F2.opus
</region>

<region>
hikey=A2
hivel=127
lokey=G#2
lovel=0
lpc=To/nQtkQn8MTvYdD3fRkwiFlq0EJ5lLCB6eYQdr+Nr9hNdM/qXq0wNd4gUAikcZAQNivwKSx/j8Z0ci/MGYHQOZMh8Diro4/AS/BQD5qt8CIbaHAArCsQAp4m0CB8IbA
lpc_rms=-49.89
offset=4138
pitch_keycenter=G#2
sample=Horn_marcato_eighth_PP_G#2.opus
</region>

<region>
hikey=A3
hivel=127
lokey=G#3
lovel=0
lpc=qNVLQ3LpB8TXAeFDSL3Iwl2FQ0L906jC3UqLQezWFMDDbR5Bj8tGQFxqTEA/A/88KAY/wUejQUD12kFB3e1/vxXbiMFCBSpBaSDpQDZfz8AN4JDAW8E2wW2xskHWQv/A
lpc_rms=-45.41
offset=399
pitch_keycenter=G#3
sample=Horn_marcato_eighth_PP_G#3.opus
</region>

<region>
hikey=A4
hivel=127
lokey=G#4
lovel=0
lpc=QRfFQ205j8T+zIlELH+tw28560IIEUvDv5aAQsxBW8C7+BhCYBCgP2AqfcHtRIHBoIr7QA6lcUFqTexBslthwn1aWMGVWjtCp9EPQcSYLsKTswVCbG7mQOdsR8KAjPxB
lpc_rms=-38.21
offset=133
pitch_keycenter=G#4
sample=Horn_marcato_eighth_PP_G#4.opus
</region>
</group>

<group>
ampeg_release=0.4
group_label=Group_85-127
lpc_hicc1=127
lpc_locc1=85

<region>
hikey=B2
hivel=127
lokey=A#2
lovel=0
lpc=8qrpQd6nwsIA3h1DwnU5w3L6P0MDYjrDfhIsQwOtGsMNZglDGr/uwraxzELt46vCSNOLQlYkY8JmV0BCmCMhwnjH8UGs05bB9XYXQZWeMMCzyRrABW+iQDfsf8CA2K8/
lpc_rms=-38.14
offset=703
pitch_keycenter=A#2
sample=Horn_marcato_eighth_FF_A#2.opus
</region>

<region>
hikey=B3
hivel=127
lokey=A#3
lovel=0
lpc=EhgIQfTll8HmuZ9B8muJweG7cUGzelbBnEM2QZUVHcHSkQdBuBvLwMq5nEAGtXTAJRU2QMIqib+Q5yu+cb49P/dhxL+4JAtAeN4dwHpOJUCB+i/ABckbQMKbxL8bRC8/
lpc_rms=-32.52
offset=254
pitch_keycenter=A#3
sample=Horn_marcato_eighth_FF_A#3.opus
</region>

<region>
hikey=B4
hivel=127
lokey=A#4
lovel=0
lpc=GK7SQNSrVsE0elRBNHQswc69EUGGQfvAB7bTQDaRpMCEXW9AZAFcwIWmLkCSb76/gptqP2mB475DJSq/ZEfkP7GLKsCTKlRAhSgkwNd29z/w722/i6ecPotypr5UoqU+
lpc_rms=-31.70
pitch_keycenter=A#4
sample=Horn_marcato_eighth_FF_A#4.opus
</region>

<region>
hikey=C#3
hivel=127
lokey=C3
lovel=0
lpc=zlsuQe1i0sG2hfFB46jjweSe1EEiTbvBgAOcQdbrecGsXT9BaiwKwcQcrECs9sO/VG+xv5n2WEDkmJzA/ybNQGlO7MAYA+JAKNG+wBOkj0D+NkDARgXHP6N8A79a6IA+
lpc_rms=-39.27
offset=662
pitch_keycenter=C3
sample=Horn_marcato_eighth_FF_C3.opus
</region>

<region>
hikey=C#4
hivel=127
lokey=C4
lovel=0
lpc=JgIfQa+7qcFW+KdBFQKTwQgwiEG59nnB4cppQWSVVMH91TRBGocUwQfA80B8kLvAPdeRQIu7JMC1d6g/ffZ1v7BDIT9J8V6+V3gqvlm/tj0j4SM+zgsWPtb3t74lGoo+
lpc_rms=-31.20
offset=327
sample=Horn_marcato_eighth_FF_C4.opus
</region>

<region>
hikey=C#5
hivel=127
lokey=C5
lovel=0
lpc=YQ9PQW258MGs0gZCoZT7wePy9UHbuOjBO7DRQTDVqsHI5mFBVVsXwefj7kDBJCnAXfnpv7BmqECXmPnAPJUcQSIZOsHngjlB3lIBwYeJiEC20mXAqeCOQAleisAh2B1A
lpc_rms=-30.31
pitch_keycenter=C5
sample=Horn_marcato_eighth_FF_C5.opus
</region>

<region>
hikey=D#3
hivel=127
lokey=D3
lovel=0
lpc=ORjlQAcYfMEsK4VBNVprwZCLVEFBVz3BJUQkQUKOCsECY9lAm4ycwDrdUkBEa+u/VgJIP/ayFD+sIrC/P0vlP4YSCMA8QwRAX0+tv6a4OT+biRe/mRnNPoV3ib5tF4w+
lpc_rms=-37.12
offset=204
pitch_keycenter=D3
sample=Horn_marcato_eighth_FF_D3.opus
</region>

<region>
hikey=D#4
hivel=127
lokey=D4
lovel=0
lpc=oiwHQXibhsGuaHdBwMlQwZqYQUFvhCvBjEIRQX165cBuCKlA3nJlwCinG0AEFMu+w1SGv0PYHkDH3kbActRUQKESWsC8XDZA3Nbav86j5D5QvRy+6v4zPilaND6MkNA9
lpc_rms=-30.05
offset=312
pitch_keycenter=D4
sample=Horn_marcato_eighth_FF_D4.opus
</region>

<region>
hikey=D#5
hivel=127
lokey=D5
lovel=0
lpc=0PXqQNYpdsGX1YFBHXJcwShFOEHCYwzBFDO7QBv5PMAVQJI/w606v1Fo1L14NwNAx10XwOM9DUAimPy/J7m+P8QZt74EkpK/Qb8eQCHo/7+kzk8/h9j3PR6bD79GAFA/
lpc_rms=-34.31
pitch_keycenter=D5
sample=Horn_marcato_eighth_FF_D5.opus
</region>

<region>
hikey=F3
hivel=127
lokey=E3
lovel=0
lpc=wU3uQC3ufcFXboNBXQFpwRwvT0GcrTTB+58bQVSpAcH399JA066wwCM7jEAyNyXA9FO9P0F7ob9chZc/TOEsPkiitr8y6dU/aQGlvx9ngT/YVqi/nDy9PyG3oL8sYUg/
lpc_rms=-33.64
offset=452
pitch_keycenter=E3
sample=Horn_marcato_eighth_FF_E3.opus
</region>

<region>
hikey=F4
hivel=127
lokey=E4
lovel=0
lpc=Zgi/QL/jP8EYvjRBkzodwUi0F0GIJQTBiVHZQBJ3zMB7a7dARimuwFaRsEDOYIfAvE42QCot37/mSeg+DyJgPxqCv7/yUVs/RwexPU5AGL+yTCw/ZZguv5Q4kD+ImyG/
lpc_rms=-33.18
offset=537
pitch_keycenter=E4
sample=Horn_marcato_eighth_FF_E4.opus
</region>

<region>
hivel=127
key=E5
lovel=0
lpc=q0vFQPP4LsH7QhlBzinewD4bwkBYjaPA9EGbQHmglcAHS4hAAXJNwAUuJUDQaCXAuEQ4QG4l679Ncog/+1WhvljeM78tl+w/9cKev0retD9faQ3AhYwoQCPCxr9ul2A/
lpc_rms=-29.47
sample=Horn_marcato_eighth_FF_E5.opus
</region>

<region>
hikey=G2
hivel=127
lokey=F#2
lovel=0
lpc=m34zQg+YGsMasHtDoJONw0E2h0PBenLDBqNSQwksL8McOgVDsBSvwocIOkIKi1zBFbIdwSEI10GDQxzCpAAzQsv7LcJIOxFC1mjMwXRGbEHM+rLAXK8yP/mai7548vw+
lpc_rms=-39.94
offset=588
pitch_keycenter=F#2
sample=Horn_marcato_eighth_FF_F#2.opus
</region>

<region>
hikey=G3
hivel=127
lokey=F#3
lovel=0
lpc=iHtfQal9C8KDEyJC5i8SwpVDA0LeSebB27fGQbCGrMHYSIxBkmdWwV1uIEGfK9XA19dpQJ5rGL9ehaW/X5Q1QGEbgMBUn49AqyKHwMCbdUCjVmrAf21BQLLfBsBIlHo/
lpc_rms=-35.17
offset=353
pitch_keycenter=F#3
sample=Horn_marcato_eighth_FF_F#3.opus
</region>

<region>
hikey=G4
hivel=127
lokey=F#4
lovel=0
lpc=KPK3QI1/PcGNrjlBHVklwb7cG0FI+QPB/AbgQBx9v8A8UotADvBawEhZOUB0ps+/jTmLPK9F3j8WHinA9Ds1QOIDMsDLmiJAvoAywGEaWkAbzTzAPwj0P+t4sb9O7jw/
lpc_rms=-34.33
offset=220
pitch_keycenter=F#4
sample=Horn_marcato_eighth_FF_F#4.opus
</region>

<region>
hikey=F2
hivel=127
lokey=C2
lovel=0
lpc=v+RAQpP5JcPKiIVD7NaSw6WVh0MhA2fDcHw6Q75DDsNOK8dCtEl6wnQAC0Ift1jB939dwNf3lEHO6OzB018CQtZL4MFAVpRBglfgwOykSMDc8QhB0DDlwJ8AEkAnXRA+
lpc_rms=-42.92
offset=509
pitch_keycenter=F2
sample=Horn_marcato_eighth_FF_F2.opus
</region>

<region>
hikey=A2
hivel=127
lokey=G#2
lovel=0
lpc=bplMQZ90BsJdmiVCRBgdwo8BFEIkMArCffb8QVnp4sHtVcBBS9CZwUgxcUE6ujDBiYLzQFXqksDTReI/rXClP6hWksCzy8lAnn6twA3+UECHQrC/pCswPw0uMr9U4ts+
lpc_rms=-37.27
offset=904
pitch_keycenter=G#2
sample=Horn_marcato_eighth_FF_G#2.opus
</region>

<region>
hikey=A3
hivel=127
lokey=G#3
lovel=0
lpc=JsgxQRpJ3sEXqgRCQQf8wb5m7kEHld3BAqHJQQ02tcGyRphBolVmwf8/I0ETONHARWdKQMR76T0EFSzAl6OPQOn6uMDxi75ATVWowI+hlECZ3m7AG7E7QDpMCMD7O24/
lpc_rms=-34.20
offset=509
pitch_keycenter=G#3
sample=Horn_marcato_eighth_FF_G#3.opus
</region>

<region>
hikey=A4
hivel=127
lokey=G#4
lovel=0
lpc=AFXGQCZXPMHhkiJBD2sFwflvAEFV8ufA5wy9QKhJssC7SZNAJp4wwNeUAkAcHf2/FUcZQJKd4L88aFg/Gc2ivbcPkb6CV9I+AipvvvMu574FK28+cudbP8si0L8W74M/
lpc_rms=-30.27
offset=7
pitch_keycenter=G#4
sample=Horn_marcato_eighth_FF_G#4.opus
</region>
</group>

<group>
ampeg_release=0.4
group_label=Group_43-84
lpc_hicc1=84
lpc_locc1=43

<region>
hikey=B2
hivel=127
lokey=A#2
lovel=0
lpc=rcoFQ5G57sP/GS1E/20CxLd5b0OACATDUdj5Qpc6r8KajDtCouchwmpq6UHaOARBgFMFws16B0JXsQPCEhMAQgxspsED6fBAQ519wNmHF0HQP2vBiw0UQc3GSL8RLSy/
lpc_rms=-40.56
offset=378
pitch_keycenter=A#2
sample=Horn_marcato_eighth_MF_A#2.opus
</region>

<region>
hikey=B3
hivel=127
lokey=A#3
lovel=0
lpc=sXrOQuC21sPdXkxE8g5wxC43RUTJHvXDWjWAQ35IC8MKvbJCV8VZwrRH4UGuNcPB+DbjQZsPMr9eIXrCMx/gQtxYzcIeFE5CZsMtwNv+zcGH8gNCyPvDwSxyKUHRH+u/
lpc_rms=-35.73
offset=287
pitch_keycenter=A#3
sample=Horn_marcato_eighth_MF_A#3.opus
</region>

<region>
hikey=B4
hivel=127
lokey=A#4
lovel=0
lpc=I9UeQ3uUE8QOwW1ELk1UxM/g3kPkFCfD85L7QuFTCMNTlZ9CdeIeQHnGG8IPnK5BEv/uwHa+A0IVfUvCWI6EQRYXnEFQKUvA/9KAwRM0B0C6s6m99JzTQaM5FsLekIlB
lpc_rms=-37.78
pitch_keycenter=A#4
sample=Horn_marcato_eighth_MF_A#4.opus
</region>

<region>
hikey=C#3
hivel=127
lokey=C3
lovel=0
lpc=N1qaQkmdkcMi8fRD1oH7w8t3vEMgNHLDhegUQ7uWscL+cktC32HhwTA6hUEm4FbBc2YzQZffLMAOsuzAgEdUQSNyfcGZQ3FBqsURwT/Baz/mLZNA+ybDwBroa0BI9yK/
lpc_rms=-41.79
offset=143
pitch_keycenter=C3
sample=Horn_marcato_eighth_MF_C3.opus
</region>

<region>
hikey=C#4
hivel=127
lokey=C4
lovel=0
lpc=aNtzQuzZb8Oyxd9D4JoLxCrrCUSUtujDe+6qQxWlYcPdPQxDkOmdwiD0BkJcwUTAhUV2wUGm+EGYeEPCmN1pQhMsVsI9i0dCaT5swnnFgUJ0mk3CrqDXQYcxDcGuD8s/
lpc_rms=-38.22
offset=88
sample=Horn_marcato_eighth_MF_C4.opus
</region>

<region>
hikey=C#5
hivel=127
lokey=C5
lovel=0
lpc=CaYoQyz2JsT/KZ5EQ7vFxOudwUQzhKbEwJuCRNWDMsS8otRDVJaKw/oqWkP3D+3Cb9+gwQ/PxkK7+sbCDL/BQra9BsMYdDhDgBVXwzD/ZkMW5mTDT3g+Q9V83cIxJgJC
lpc_rms=-29.93
pitch_keycenter=C5
sample=Horn_marcato_eighth_MF_C5.opus
</region>

<region>
hikey=D#3
hivel=127
lokey=D3
lovel=0
lpc=TdRIQqmwPsM41K1D/drWw3W/1ENnorbD8GOKQ/whOsOsDuJCbt19wsrnA0LcXFPBlFmPvyndZUGMR83BdyoBQisaBMJspvZByd/lwUdiwkEnAoHBgjD0QOBmNMBlHF4/
lpc_rms=-41.02
pitch_keycenter=D3
sample=Horn_marcato_eighth_MF_D3.opus
</region>

<region>
hikey=D#4
hivel=127
lokey=D4
lovel=0
lpc=mY6aQgZ0isOHwulDzeAFxAIBAER8QeHDOnq6Q9q+mMM9C4VDeN9uw0KuR0PddxDDCoSxQnHRMMI81F1BXi/bQMEfu8Hr5B9C9H1NwgsoUEKgBynCeOLBQbrv+cBvIZs/
lpc_rms=-31.93
offset=396
pitch_keycenter=D4
sample=Horn_marcato_eighth_MF_D4.opus
</region>

<region>
hikey=D#5
hivel=127
lokey=D5
lovel=0
lpc=/F0NQ1KyBsS4RnhEmayXxHUej0QxsWHEtoIaRDQQvcPlEGNDLVISwzvTvUJFaXPCP7suQm48icEO6BjCrTWrQiEviMKyf29BOXXTQDFVsUFJCIrCt4zEQoVwncJ/GOVB
lpc_rms=-31.99
pitch_keycenter=D5
sample=Horn_marcato_eighth_MF_D5.opus
</region>

<region>
hikey=F3
hivel=127
lokey=E3
lovel=0
lpc=Nc/aQqhBzcNH3DBEuJNHxIx0NkTJbBrEfG31QwbNrMMDm09Dr2vawnFWdEKnO1fCiDOEQlu2e8Ldb/xB/DJcQRsxc8IYisdCz57Vwu05lELM9RbCHHGbQR7ZGMHRSThA
lpc_rms=-34.68
offset=212
pitch_keycenter=E3
sample=Horn_marcato_eighth_MF_E3.opus
</region>

<region>
hikey=F4
hivel=127
lokey=E4
lovel=0
lpc=ereDQhIcg8OFJfRDxiUTxMiZB0TWUNbD9HqfQ+zMb8O5BjxDGiUYw/+r40KNrVzCzfWuwVxFt0LDiAbD8okRQ/GDAMOWzsZCrLSBwurevkH3Ar9AkwQAwUf8p792oxxA
lpc_rms=-38.31
offset=225
pitch_keycenter=E4
sample=Horn_marcato_eighth_MF_E4.opus
</region>

<region>
hivel=127
key=E5
lovel=0
lpc=IS0OQ8WC6sOFGjFEkTckxFbL6UMrnqLDkgF7Q0HcQcOhNRZDghrlwtmeikJuMhTC/v9kQo/YlcI6+zFCatfuQMnsF8L5fFJCZCWLwh3JxkLxdPnCY+4JQ2xv2sJTdS5C
lpc_rms=-35.73
sample=Horn_marcato_eighth_MF_E5.opus
</region>

<region>
hikey=G2
hivel=127
lokey=F#2
lovel=0
lpc=bXDhQi5HwsPAAApES27WwycsX0Ph8ufCPY+QQkuVDcLeV0dB1uACwTx520DdIOc/x0aEwPgd/7/7XhHAD+cNQXMlwr5Jp2zA3PIYwTzzX0EiIQ3AM6+XwHMQJUA1qzu+
lpc_rms=-43.19
offset=85
pitch_keycenter=F#2
sample=Horn_marcato_eighth_MF_F#2.opus
</region>

<region>
hikey=G3
hivel=127
lokey=F#3
lovel=0
lpc=OSTxQne038N8/jpEeGRGxKONIkREG+jDTWaWQ1V0LsNX/qdCzsQCwnfBckGikwLBPL+4wJFv6EEy5TTCBbwXQr+maMGD8Pg+83hNPfAFw8DoCWNBa0srwRAHYkCn0fO+
lpc_rms=-37.49
offset=1481
pitch_keycenter=F#3
sample=Horn_marcato_eighth_MF_F#3.opus
</region>

<region>
hikey=G4
hivel=127
lokey=F#4
lovel=0
lpc=YA/KQgAWzsOyqUhEpseBxFhRhEQt6WzEO8VFRFZQHsTEuvBDPwOjw7KdLkMq82rCw4N3wToGoUL06QjDTZsYQ0JuBcMydORCDhnHwq4AmkKiq13CAxwsQpL85cEuRyBB
lpc_rms=-31.54
offset=300
pitch_keycenter=F#4
sample=Horn_marcato_eighth_MF_F#4.opus
</region>

<region>
hikey=F2
hivel=127
lokey=C2
lovel=0
lpc=T9MJQ2No0sNZM+VDhbU+wy7IFUL8JpLCQBx5QkLf8cDV3Pc/8ciVwMsO7b9p9Ie/cmAzwDG/N0HLFBfAs9MLwQkwpEBhdlQ/uZOZOmbl678ACsC/YA0GQXgzRcE19sRA
lpc_rms=-46.48
offset=515
pitch_keycenter=F2
sample=Horn_marcato_eighth_MF_F2.opus
</region>

<region>
hikey=A2
hivel=127
lokey=G#2
lovel=0
lpc=lBLmQuKbv8OCvvdDjYKawxx72ELgQ1rCPpQ9Qvp37MFyUJ5Bk90vwYK17r+nl1FAHKxkQNdpY7/bxrXA5HUwP4+0FkGAGkbAAIlhwWAkWUFpKoI/WHAGwcTTuEDuEZy/
lpc_rms=-45.73
offset=477
pitch_keycenter=G#2
sample=Horn_marcato_eighth_MF_G#2.opus
</region>

<region>
hikey=A3
hivel=127
lokey=G#3
lovel=0
lpc=qCD3QtVN9cOoSFFEJx5HxNg77EMRB2rDyqYxQ5TUEMOeLnJC7AQDQf0kn8F5bmq/qwzBQflccsEyPAfCDY+NQtsCQcJ8v0DAxKfSQfh3AcKPxUVCb79Vwlip60H38snA
lpc_rms=-38.17
offset=257
pitch_keycenter=G#3
sample=Horn_marcato_eighth_MF_G#3.opus
</region>

<region>
hikey=A4
hivel=127
lokey=G#4
lovel=0
lpc=GD95QlSgbcNqYNtD8CkMxEhFFEQi3QzEHpv1QxnwxsOCHJpD+ldowxaAJ0NSnuHCyQaCQjq9S8EWKz7CCiTTQic2FMMkgiZDjrMiwwHbGEMFIgzDN3PcQhq8ccI5+oFB
lpc_rms=-30.17
offset=472
pitch_keycenter=G#4
sample=Horn_marcato_eighth_MF_G#4.opus
</region>
</group>

<group>
group_label=RR1
seq_length=4
seq_position=1

<region>
hivel=127
key=A#2
lovel=85
sample=Horn_staccato_FF_A#2_RR1.opus
</region>

<region>
hivel=127
key=A#3
lovel=85
sample=Horn_staccato_FF_A#3_RR1.opus
</region>

<region>
hivel=127
key=A#4
lovel=85
sample=Horn_staccato_FF_A#4_RR1.opus
</region>

<region>
hivel=127
key=A2
lovel=85
sample=Horn_staccato_FF_A2_RR1.opus
</region>

<region>
hivel=127
key=A3
lovel=85
sample=Horn_staccato_FF_A3_RR1.opus
</region>

<region>
hivel=127
key=A4
lovel=85
sample=Horn_staccato_FF_A4_RR1.opus
</region>

<region>
hivel=127
key=B2
lovel=85
sample=Horn_staccato_FF_B2_RR1.opus
</region>

<region>
hivel=127
key=B3
lovel=85
sample=Horn_staccato_FF_B3_RR1.opus
</region>

<region>
hivel=127
key=B4
lovel=85
sample=Horn_staccato_FF_B4_RR1.opus
</region>

<region>
hivel=127
key=C#3
lovel=85
sample=Horn_staccato_FF_C#3_RR1.opus
</region>

<region>
hivel=127
key=C#4
lovel=85
sample=Horn_staccato_FF_C#4_RR1.opus
</region>

<region>
hivel=127
key=C#5
lovel=85
sample=Horn_staccato_FF_C#5_RR1.opus
</region>

<region>
hivel=127
key=C3
lovel=85
sample=Horn_staccato_FF_C3_RR1.opus
</region>

<region>
hivel=127
key=C4
lovel=85
sample=Horn_staccato_FF_C4_RR1.opus
</region>

<region>
hivel=127
key=C5
lovel=85
sample=Horn_staccato_FF_C5_RR1.opus
</region>

<region>
hivel=127
key=D#3
lovel=85
sample=Horn_staccato_FF_D#3_RR1.opus
</region>

<region>
hivel=127
key=D#4
lovel=85
sample=Horn_staccato_FF_D#4_RR1.opus
</region>

<region>
hivel=127
key=D#5
lovel=85
sample=Horn_staccato_FF_D#5_RR1.opus
</region>

<region>
hivel=127
key=D3
lovel=85
sample=Horn_staccato_FF_D3_RR1.opus
</region>

<region>
hivel=127
key=D4
lovel=85
sample=Horn_staccato_FF_D4_RR1.opus
</region>

<region>
hivel=127
key=D5
lovel=85
sample=Horn_staccato_FF_D5_RR1.opus
</region>

<region>
hivel=127
key=E3
lovel=85
sample=Horn_staccato_FF_E3_RR1.opus
</region>

<region>
hivel=127
key=E4
lovel=85
sample=Horn_staccato_FF_E4_RR1.opus
</region>

<region>
hivel=127
key=E5
lovel=85
sample=Horn_staccato_FF_E5_RR1.opus
</region>

<region>
hivel=127
key=F#2
lovel=85
sample=Horn_staccato_FF_F#2_RR1.opus
</region>

<region>
hivel=127
key=F#3
lovel=85
sample=Horn_staccato_FF_F#3_RR1.opus
</region>

<region>
hivel=127
key=F#4
lovel=85
sample=Horn_staccato_FF_F#4_RR1.opus
</region>

<region>
hikey=F2
hivel=127
lokey=C2
lovel=85
pitch_keycenter=F2
sample=Horn_staccato_FF_F2_RR1.opus
</region>

<region>
hivel=127
key=F3
lovel=85
sample=Horn_staccato_FF_F3_RR1.opus
</region>

<region>
hivel=127
key=F4
lovel=85
sample=Horn_staccato_FF_F4_RR1.opus
</region>

<region>
hikey=A#5
hivel=127
lokey=F5
lovel=85
pitch_keycenter=F5
sample=Horn_staccato_FF_F5_RR1.opus
</region>

<region>
hivel=127
key=G#2
lovel=85
sample=Horn_staccato_FF_G#2_RR1.opus
</region>

<region>
hivel=127
key=G#3
lovel=85
sample=Horn_staccato_FF_G#3_RR1.opus
</region>

<region>
hivel=127
key=G#4
lovel=85
sample=Horn_staccato_FF_G#4_RR1.opus
</region>

<region>
hivel=127
key=G2
lovel=85
sample=Horn_staccato_FF_G2_RR1.opus
</region>

<region>
hivel=127
key=G3
lovel=85
sample=Horn_staccato_FF_G3_RR1.opus
</region>

<region>
hivel=127
key=G4
lovel=85
sample=Horn_staccato_FF_G4_RR1.opus
</region>

<region>
hivel=84
key=A#2
lovel=43
sample=Horn_staccato_MF_A#2_RR1.opus
</region>

<region>
hivel=84
key=A#3
lovel=43
sample=Horn_staccato_MF_A#3_RR1.opus
</region>

<region>
hivel=84
key=A#4
lovel=43
sample=Horn_staccato_MF_A#4_RR1.opus
</region>

<region>
hivel=84
key=A2
lovel=43
sample=Horn_staccato_MF_A2_RR1.opus
</region>

<region>
hivel=84
key=A3
lovel=43
sample=Horn_staccato_MF_A3_RR1.opus
</region>

<region>
hivel=84
key=A4
lovel=43
sample=Horn_staccato_MF_A4_RR1.opus
</region>

<region>
hivel=84
key=B2
lovel=43
sample=Horn_staccato_MF_B2_RR1.opus
</region>

<region>
hivel=84
key=B3
lovel=43
sample=Horn_staccato_MF_B3_RR1.opus
</region>

<region>
hivel=84
key=B4
lovel=43
sample=Horn_staccato_MF_B4_RR1.opus
</region>

<region>
hivel=84
key=C#3
lovel=43
sample=Horn_staccato_MF_C#3_RR1.opus
</region>

<region>
hivel=84
key=C#4
lovel=43
sample=Horn_staccato_MF_C#4_RR1.opus
</region>

<region>
hivel=84
key=C#5
lovel=43
sample=Horn_staccato_MF_C#5_RR1.opus
</region>

<region>
hivel=84
key=C3
lovel=43
sample=Horn_staccato_MF_C3_RR1.opus
</region>

<region>
hivel=84
key=C4
lovel=43
sample=Horn_staccato_MF_C4_RR1.opus
</region>

<region>
hivel=84
key=C5
lovel=43
sample=Horn_staccato_MF_C5_RR1.opus
</region>

<region>
hivel=84
key=D#3
lovel=43
sample=Horn_staccato_MF_D#3_RR1.opus
</region>

<region>
hivel=84
key=D#4
lovel=43
sample=Horn_staccato_MF_D#4_RR1.opus
</region>

<region>
hivel=84
key=D#5
lovel=43
sample=Horn_staccato_MF_D#5_RR1.opus
</region>

<region>
hivel=84
key=D3
lovel=43
sample=Horn_staccato_MF_D3_RR1.opus
</region>

<region>
hivel=84
key=D4
lovel=43
sample=Horn_staccato_MF_D4_RR1.opus
</region>

<region>
hivel=84
key=D5
lovel=43
sample=Horn_staccato_MF_D5_RR1.opus
</region>

<region>
hivel=84
key=E3
lovel=43
sample=Horn_staccato_MF_E3_RR1.opus
</region>

<region>
hivel=84
key=E4
lovel=43
sample=Horn_staccato_MF_E4_RR1.opus
</region>

<region>
hivel=84
key=E5
lovel=43
sample=Horn_staccato_MF_E5_RR1.opus
</region>

<region>
hivel=84
key=F#2
lovel=43
sample=Horn_staccato_MF_F#2_RR1.opus
</region>

<region>
hivel=84
key=F#3
lovel=43
sample=Horn_staccato_MF_F#3_RR1.opus
</region>

<region>
hivel=84
key=F#4
lovel=43
sample=Horn_staccato_MF_F#4_RR1.opus
</region>

<region>
hikey=F2
hivel=84
lokey=C2
lovel=43
pitch_keycenter=F2
sample=Horn_staccato_MF_F2_RR1.opus
</region>

<region>
hivel=84
key=F3
lovel=43
sample=Horn_staccato_MF_F3_RR1.opus
</region>

<region>
hivel=84
key=F4
lovel=43
sample=Horn_staccato_MF_F4_RR1.opus
</region>

<region>
hikey=A#5
hivel=84
lokey=F5
lovel=43
pitch_keycenter=F5
sample=Horn_staccato_MF_F5_RR1.opus
</region>

<region>
hivel=84
key=G#2
lovel=43
sample=Horn_staccato_MF_G#2_RR1.opus
</region>

<region>
hivel=84
key=G#3
lovel=43
sample=Horn_staccato_MF_G#3_RR1.opus
</region>

<region>
hivel=84
key=G#4
lovel=43
sample=Horn_staccato_MF_G#4_RR1.opus
</region>

<region>
hivel=84
key=G2
lovel=43
sample=Horn_staccato_MF_G2_RR1.opus
</region>

<region>
hivel=84
key=G3
lovel=43
sample=Horn_staccato_MF_G3_RR1.opus
</region>

<region>
hivel=84
key=G4
lovel=43
sample=Horn_staccato_MF_G4_RR1.opus
</region>

<region>
hivel=42
key=A#2
lovel=0
sample=Horn_staccato_PP_A#2_RR1.opus
</region>

<region>
hivel=42
key=A#3
lovel=0
sample=Horn_staccato_PP_A#3_RR1.opus
</region>

<region>
hivel=42
key=A#4
lovel=0
sample=Horn_staccato_PP_A#4_RR1.opus
</region>

<region>
hivel=42
key=A2
lovel=0
sample=Horn_staccato_PP_A2_RR1.opus
</region>

<region>
hivel=42
key=A3
lovel=0
sample=Horn_staccato_PP_A3_RR1.opus
</region>

<region>
hivel=42
key=A4
lovel=0
sample=Horn_staccato_PP_A4_RR1.opus
</region>

<region>
hivel=42
key=B2
lovel=0
sample=Horn_staccato_PP_B2_RR1.opus
</region>

<region>
hivel=42
key=B3
lovel=0
sample=Horn_staccato_PP_B3_RR1.opus
</region>

<region>
hivel=42
key=B4
lovel=0
sample=Horn_staccato_PP_B4_RR1.opus
</region>

<region>
hivel=42
key=C#3
lovel=0
sample=Horn_staccato_PP_C#3_RR1.opus
</region>

<region>
hivel=42
key=C#4
lovel=0
sample=Horn_staccato_PP_C#4_RR1.opus
</region>

<region>
hivel=42
key=C#5
lovel=0
sample=Horn_staccato_PP_C#5_RR1.opus
</region>

<region>
hivel=42
key=C3
lovel=0
sample=Horn_staccato_PP_C3_RR1.opus
</region>

<region>
hivel=42
key=C4
lovel=0
sample=Horn_staccato_PP_C4_RR1.opus
</region>

<region>
hivel=42
key=C5
lovel=0
sample=Horn_staccato_PP_C5_RR1.opus
</region>

<region>
hivel=42
key=D#3
lovel=0
sample=Horn_staccato_PP_D#3_RR1.opus
</region>

<region>
hivel=42
key=D#4
lovel=0
sample=Horn_staccato_PP_D#4_RR1.opus
</region>

<region>
hivel=42
key=D#5
lovel=0
sample=Horn_staccato_PP_D#5_RR1.opus
</region>

<region>
hivel=42
key=D3
lovel=0
sample=Horn_staccato_PP_D3_RR1.opus
</region>

<region>
hivel=42
key=D4
lovel=0
sample=Horn_staccato_PP_D4_RR1.opus
</region>

<region>
hivel=42
key=D5
lovel=0
sample=Horn_staccato_PP_D5_RR1.opus
</region>

<region>
hivel=42
key=E3
lovel=0
sample=Horn_staccato_PP_E3_RR1.opus
</region>

<region>
hivel=42
key=E4
lovel=0
sample=Horn_staccato_PP_E4_RR1.opus
</region>

<region>
hivel=42
key=E5
lovel=0
sample=Horn_staccato_PP_E5_RR1.opus
</region>

<region>
hivel=42
key=F#2
lovel=0
sample=Horn_staccato_PP_F#2_RR1.opus
</region>

<region>
hivel=42
key=F#3
lovel=0
sample=Horn_staccato_PP_F#3_RR1.opus
</region>

<region>
hivel=42
key=F#4
lovel=0
sample=Horn_staccato_PP_F#4_RR1.opus
</region>

<region>
hikey=F2
hivel=42
lokey=C2
lovel=0
pitch_keycenter=F2
sample=Horn_staccato_PP_F2_RR1.opus
</region>

<region>
hivel=42
key=F3
lovel=0
sample=Horn_staccato_PP_F3_RR1.opus
</region>

<region>
hivel=42
key=F4
lovel=0
sample=Horn_staccato_PP_F4_RR1.opus
</region>

<region>
hikey=A#5
hivel=42
lokey=F5
lovel=0
pitch_keycenter=F5
sample=Horn_staccato_PP_F5_RR1.opus
</region>

<region>
hivel=42
key=G#2
lovel=0
sample=Horn_staccato_PP_G#2_RR1.opus
</region>

<region>
hivel=42
key=G#3
lovel=0
sample=Horn_staccato_PP_G#3_RR1.opus
</region>

<region>
hivel=42
key=G#4
lovel=0
sample=Horn_staccato_PP_G#4_RR1.opus
</region>

<region>
hivel=42
key=G2
lovel=0
sample=Horn_staccato_PP_G2_RR1.opus
</region>

<region>
hivel=42
key=G3
lovel=0
sample=Horn_staccato_PP_G3_RR1.opus
</region>

<region>
hivel=42
key=G4
lovel=0
sample=Horn_staccato_PP_G4_RR1.opus
</region>
</group>

<group>
group_label=RR2
seq_length=4
seq_position=2

<region>
hivel=127
key=A#2
lovel=85
sample=Horn_staccato_FF_A#2_RR2.opus
</region>

<region>
hivel=127
key=A#3
lovel=85
sample=Horn_staccato_FF_A#3_RR2.opus
</region>

<region>
hivel=127
key=A#4
lovel=85
sample=Horn_staccato_FF_A#4_RR2.opus
</region>

<region>
hivel=127
key=A2
lovel=85
sample=Horn_staccato_FF_A2_RR2.opus
</region>

<region>
hivel=127
key=A3
lovel=85
sample=Horn_staccato_FF_A3_RR2.opus
</region>

<region>
hivel=127
key=A4
lovel=85
sample=Horn_staccato_FF_A4_RR2.opus
</region>

<region>
hivel=127
key=B2
lovel=85
sample=Horn_staccato_FF_B2_RR2.opus
</region>

<region>
hivel=127
key=B3
lovel=85
sample=Horn_staccato_FF_B3_RR2.opus
</region>

<region>
hivel=127
key=B4
lovel=85
sample=Horn_staccato_FF_B4_RR2.opus
</region>

<region>
hivel=127
key=C#3
lovel=85
sample=Horn_staccato_FF_C#3_RR2.opus
</region>

<region>
hivel=127
key=C#4
lovel=85
sample=Horn_staccato_FF_C#4_RR2.opus
</region>

<region>
hivel=127
key=C#5
lovel=85
sample=Horn_staccato_FF_C#5_RR2.opus
</region>

<region>
hivel=127
key=C3
lovel=85
sample=Horn_staccato_FF_C3_RR2.opus
</region>

<region>
hivel=127
key=C4
lovel=85
sample=Horn_staccato_FF_C4_RR2.opus
</region>

<region>
hivel=127
key=C5
lovel=85
sample=Horn_staccato_FF_C5_RR2.opus
</region>

<region>
hivel=127
key=D#3
lovel=85
sample=Horn_staccato_FF_D#3_RR2.opus
</region>

<region>
hivel=127
key=D#4
lovel=85
sample=Horn_staccato_FF_D#4_RR2.opus
</region>

<region>
hivel=127
key=D#5
lovel=85
sample=Horn_staccato_FF_D#5_RR2.opus
</region>

<region>
hivel=127
key=D3
lovel=85
sample=Horn_staccato_FF_D3_RR2.opus
</region>

<region>
hivel=127
key=D4
lovel=85
sample=Horn_staccato_FF_D4_RR2.opus
</region>

<region>
hivel=127
key=D5
lovel=85
sample=Horn_staccato_FF_D5_RR2.opus
</region>

<region>
hivel=127
key=E3
lovel=85
sample=Horn_staccato_FF_E3_RR2.opus
</region>

<region>
hivel=127
key=E4
lovel=85
sample=Horn_staccato_FF_E4_RR2.opus
</region>

<region>
hivel=127
key=E5
lovel=85
sample=Horn_staccato_FF_E5_RR2.opus
</region>

<region>
hivel=127
key=F#2
lovel=85
sample=Horn_staccato_FF_F#2_RR2.opus
</region>

<region>
hivel=127
key=F#3
lovel=85
sample=Horn_staccato_FF_F#3_RR2.opus
</region>

<region>
hivel=127
key=F#4
lovel=85
sample=Horn_staccato_FF_F#4_RR2.opus
</region>

<region>
hikey=F2
hivel=127
lokey=C2
lovel=85
pitch_keycenter=F2
sample=Horn_staccato_FF_F2_RR2.opus
</region>

<region>
hivel=127
key=F3
lovel=85
sample=Horn_staccato_FF_F3_RR2.opus
</region>

<region>
hivel=127
key=F4
lovel=85
sample=Horn_staccato_FF_F4_RR2.opus
</region>

<region>
hikey=A#5
hivel=127
lokey=F5
lovel=85
pitch_keycenter=F5
sample=Horn_staccato_FF_F5_RR2.opus
</region>

<region>
hivel=127
key=G#2
lovel=85
sample=Horn_staccato_FF_G#2_RR2.opus
</region>

<region>
hivel=127
key=G#3
lovel=85
sample=Horn_staccato_FF_G#3_RR2.opus
</region>

<region>
hivel=127
key=G#4
lovel=85
sample=Horn_staccato_FF_G#4_RR2.opus
</region>

<region>
hivel=127
key=G2
lovel=85
sample=Horn_staccato_FF_G2_RR2.opus
</region>

<region>
hivel=127
key=G3
lovel=85
sample=Horn_staccato_FF_G3_RR2.opus
</region>

<region>
hivel=127
key=G4
lovel=85
sample=Horn_staccato_FF_G4_RR2.opus
</region>

<region>
hivel=84
key=A#2
lovel=43
sample=Horn_staccato_MF_A#2_RR2.opus
</region>

<region>
hivel=84
key=A#3
lovel=43
sample=Horn_staccato_MF_A#3_RR2.opus
</region>

<region>
hivel=84
key=A#4
lovel=43
sample=Horn_staccato_MF_A#4_RR2.opus
</region>

<region>
hivel=84
key=A2
lovel=43
sample=Horn_staccato_MF_A2_RR2.opus
</region>

<region>
hivel=84
key=A3
lovel=43
sample=Horn_staccato_MF_A3_RR2.opus
</region>

<region>
hivel=84
key=A4
lovel=43
sample=Horn_staccato_MF_A4_RR2.opus
</region>

<region>
hivel=84
key=B2
lovel=43
sample=Horn_staccato_MF_B2_RR2.opus
</region>

<region>
hivel=84
key=B3
lovel=43
sample=Horn_staccato_MF_B3_RR2.opus
</region>

<region>
hivel=84
key=B4
lovel=43
sample=Horn_staccato_MF_B4_RR2.opus
</region>

<region>
hivel=84
key=C#3
lovel=43
sample=Horn_staccato_MF_C#3_RR2.opus
</region>

<region>
hivel=84
key=C#4
lovel=43
sample=Horn_staccato_MF_C#4_RR2.opus
</region>

<region>
hivel=84
key=C#5
lovel=43
sample=Horn_staccato_MF_C#5_RR2.opus
</region>

<region>
hivel=84
key=C3
lovel=43
sample=Horn_staccato_MF_C3_RR2.opus
</region>

<region>
hivel=84
key=C4
lovel=43
sample=Horn_staccato_MF_C4_RR2.opus
</region>

<region>
hivel=84
key=C5
lovel=43
sample=Horn_staccato_MF_C5_RR2.opus
</region>

<region>
hivel=84
key=D#3
lovel=43
sample=Horn_staccato_MF_D#3_RR2.opus
</region>

<region>
hivel=84
key=D#4
lovel=43
sample=Horn_staccato_MF_D#4_RR2.opus
</region>

<region>
hivel=84
key=D#5
lovel=43
sample=Horn_staccato_MF_D#5_RR2.opus
</region>

<region>
hivel=84
key=D3
lovel=43
sample=Horn_staccato_MF_D3_RR2.opus
</region>

<region>
hivel=84
key=D4
lovel=43
sample=Horn_staccato_MF_D4_RR2.opus
</region>

<region>
hivel=84
key=D5
lovel=43
sample=Horn_staccato_MF_D5_RR2.opus
</region>

<region>
hivel=84
key=E3
lovel=43
sample=Horn_staccato_MF_E3_RR2.opus
</region>

<region>
hivel=84
key=E4
lovel=43
sample=Horn_staccato_MF_E4_RR2.opus
</region>

<region>
hivel=84
key=E5
lovel=43
sample=Horn_staccato_MF_E5_RR2.opus
</region>

<region>
hivel=84
key=F#2
lovel=43
sample=Horn_staccato_MF_F#2_RR2.opus
</region>

<region>
hivel=84
key=F#3
lovel=43
sample=Horn_staccato_MF_F#3_RR2.opus
</region>

<region>
hivel=84
key=F#4
lovel=43
sample=Horn_staccato_MF_F#4_RR2.opus
</region>

<region>
hikey=F2
hivel=84
lokey=C2
lovel=43
pitch_keycenter=F2
sample=Horn_staccato_MF_F2_RR2.opus
</region>

<region>
hivel=84
key=F3
lovel=43
sample=Horn_staccato_MF_F3_RR2.opus
</region>

<region>
hivel=84
key=F4
lovel=43
sample=Horn_staccato_MF_F4_RR2.opus
</region>

<region>
hikey=A#5
hivel=84
lokey=F5
lovel=43
pitch_keycenter=F5
sample=Horn_staccato_MF_F5_RR2.opus
</region>

<region>
hivel=84
key=G#2
lovel=43
sample=Horn_staccato_MF_G#2_RR2.opus
</region>

<region>
hivel=84
key=G#3
lovel=43
sample=Horn_staccato_MF_G#3_RR2.opus
</region>

<region>
hivel=84
key=G#4
lovel=43
sample=Horn_staccato_MF_G#4_RR2.opus
</region>

<region>
hivel=84
key=G2
lovel=43
sample=Horn_staccato_MF_G2_RR2.opus
</region>

<region>
hivel=84
key=G3
lovel=43
sample=Horn_staccato_MF_G3_RR2.opus
</region>

<region>
hivel=84
key=G4
lovel=43
sample=Horn_staccato_MF_G4_RR2.opus
</region>

<region>
hivel=42
key=A#2
lovel=0
sample=Horn_staccato_PP_A#2_RR2.opus
</region>

<region>
hivel=42
key=A#3
lovel=0
sample=Horn_staccato_PP_A#3_RR2.opus
</region>

<region>
hivel=42
key=A#4
lovel=0
sample=Horn_staccato_PP_A#4_RR2.opus
</region>

<region>
hivel=42
key=A2
lovel=0
sample=Horn_staccato_PP_A2_RR2.opus
</region>

<region>
hivel=42
key=A3
lovel=0
sample=Horn_staccato_PP_A3_RR2.opus
</region>

<region>
hivel=42
key=A4
lovel=0
sample=Horn_staccato_PP_A4_RR2.opus
</region>

<region>
hivel=42
key=B2
lovel=0
sample=Horn_staccato_PP_B2_RR2.opus
</region>

<region>
hivel=42
key=B3
lovel=0
sample=Horn_staccato_PP_B3_RR2.opus
</region>

<region>
hivel=42
key=B4
lovel=0
sample=Horn_staccato_PP_B4_RR2.opus
</region>

<region>
hivel=42
key=C#3
lovel=0
sample=Horn_staccato_PP_C#3_RR2.opus
</region>

<region>
hivel=42
key=C#4
lovel=0
sample=Horn_staccato_PP_C#4_RR2.opus
</region>

<region>
hivel=42
key=C#5
lovel=0
sample=Horn_staccato_PP_C#5_RR2.opus
</region>

<region>
hivel=42
key=C3
lovel=0
sample=Horn_staccato_PP_C3_RR2.opus
</region>

<region>
hivel=42
key=C4
lovel=0
sample=Horn_staccato_PP_C4_RR2.opus
</region>

<region>
hivel=42
key=C5
lovel=0
sample=Horn_staccato_PP_C5_RR2.opus
</region>

<region>
hivel=42
key=D#3
lovel=0
sample=Horn_staccato_PP_D#3_RR2.opus
</region>

<region>
hivel=42
key=D#4
lovel=0
sample=Horn_staccato_PP_D#4_RR2.opus
</region>

<region>
hivel=42
key=D#5
lovel=0
sample=Horn_staccato_PP_D#5_RR2.opus
</region>

<region>
hivel=42
key=D3
lovel=0
sample=Horn_staccato_PP_D3_RR2.opus
</region>

<region>
hivel=42
key=D4
lovel=0
sample=Horn_staccato_PP_D4_RR2.opus
</region>

<region>
hivel=42
key=D5
lovel=0
sample=Horn_staccato_PP_D5_RR2.opus
</region>

<region>
hivel=42
key=E3
lovel=0
sample=Horn_staccato_PP_E3_RR2.opus
</region>

<region>
hivel=42
key=E4
lovel=0
sample=Horn_staccato_PP_E4_RR2.opus
</region>

<region>
hivel=42
key=E5
lovel=0
sample=Horn_staccato_PP_E5_RR2.opus
</region>

<region>
hivel=42
key=F#2
lovel=0
sample=Horn_staccato_PP_F#2_RR2.opus
</region>

<region>
hivel=42
key=F#3
lovel=0
sample=Horn_staccato_PP_F#3_RR2.opus
</region>

<region>
hivel=42
key=F#4
lovel=0
sample=Horn_staccato_PP_F#4_RR2.opus
</region>

<region>
hikey=F2
hivel=42
lokey=C2
lovel=0
pitch_keycenter=F2
sample=Horn_staccato_PP_F2_RR2.opus
</region>

<region>
hivel=42
key=F3
lovel=0
sample=Horn_staccato_PP_F3_RR2.opus
</region>

<region>
hivel=42
key=F4
lovel=0
sample=Horn_staccato_PP_F4_RR2.opus
</region>

<region>
hikey=A#5
hivel=42
lokey=F5
lovel=0
pitch_keycenter=F5
sample=Horn_staccato_PP_F5_RR2.opus
</region>

<region>
hivel=42
key=G#2
lovel=0
sample=Horn_staccato_PP_G#2_RR2.opus
</region>

<region>
hivel=42
key=G#3
lovel=0
sample=Horn_staccato_PP_G#3_RR2.opus
</region>

<region>
hivel=42
key=G#4
lovel=0
sample=Horn_staccato_PP_G#4_RR2.opus
</region>

<region>
hivel=42
key=G2
lovel=0
sample=Horn_staccato_PP_G2_RR2.opus
</region>

<region>
hivel=42
key=G3
lovel=0
sample=Horn_staccato_PP_G3_RR2.opus
</region>

<region>
hivel=42
key=G4
lovel=0
sample=Horn_staccato_PP_G4_RR2.opus
</region>
</group>

<group>
group_label=RR3
seq_length=4
seq_position=3

<region>
hivel=127
key=A#2
lovel=85
sample=Horn_staccato_FF_A#2_RR3.opus
</region>

<region>
hivel=127
key=A#3
lovel=85
sample=Horn_staccato_FF_A#3_RR3.opus
</region>

<region>
hivel=127
key=A#4
lovel=85
sample=Horn_staccato_FF_A#4_RR3.opus
</region>

<region>
hivel=127
key=A2
lovel=85
sample=Horn_staccato_FF_A2_RR3.opus
</region>

<region>
hivel=127
key=A3
lovel=85
sample=Horn_staccato_FF_A3_RR3.opus
</region>

<region>
hivel=127
key=A4
lovel=85
sample=Horn_staccato_FF_A4_RR3.opus
</region>

<region>
hivel=127
key=B2
lovel=85
sample=Horn_staccato_FF_B2_RR3.opus
</region>

<region>
hivel=127
key=B3
lovel=85
sample=Horn_staccato_FF_B3_RR3.opus
</region>

<region>
hivel=127
key=B4
lovel=85
sample=Horn_staccato_FF_B4_RR3.opus
</region>

<region>
hivel=127
key=C#3
lovel=85
sample=Horn_staccato_FF_C#3_RR3.opus
</region>

<region>
hivel=127
key=C#4
lovel=85
sample=Horn_staccato_FF_C#4_RR3.opus
</region>

<region>
hivel=127
key=C#5
lovel=85
sample=Horn_staccato_FF_C#5_RR3.opus
</region>

<region>
hivel=127
key=C3
lovel=85
sample=Horn_staccato_FF_C3_RR3.opus
</region>

<region>
hivel=127
key=C4
lovel=85
sample=Horn_staccato_FF_C4_RR3.opus
</region>

<region>
hivel=127
key=C5
lovel=85
sample=Horn_staccato_FF_C5_RR3.opus
</region>

<region>
hivel=127
key=D#3
lovel=85
sample=Horn_staccato_FF_D#3_RR3.opus
</region>

<region>
hivel=127
key=D#4
lovel=85
sample=Horn_staccato_FF_D#4_RR3.opus
</region>

<region>
hivel=127
key=D#5
lovel=85
sample=Horn_staccato_FF_D#5_RR3.opus
</region>

<region>
hivel=127
key=D3
lovel=85
sample=Horn_staccato_FF_D3_RR3.opus
</region>

<region>
hivel=127
key=D4
lovel=85
sample=Horn_staccato_FF_D4_RR3.opus
</region>

<region>
hivel=127
key=D5
lovel=85
sample=Horn_staccato_FF_D5_RR3.opus
</region>

<region>
hivel=127
key=E3
lovel=85
sample=Horn_staccato_FF_E3_RR3.opus
</region>

<region>
hivel=127
key=E4
lovel=85
sample=Horn_staccato_FF_E4_RR3.opus
</region>

<region>
hivel=127
key=E5
lovel=85
sample=Horn_staccato_FF_E5_RR3.opus
</region>

<region>
hivel=127
key=F#2
lovel=85
sample=Horn_staccato_FF_F#2_RR3.opus
</region>

<region>
hivel=127
key=F#3
lovel=85
sample=Horn_staccato_FF_F#3_RR3.opus
</region>

<region>
hivel=127
key=F#4
lovel=85
sample=Horn_staccato_FF_F#4_RR3.opus
</region>

<region>
hikey=F2
hivel=127
lokey=C2
lovel=85
pitch_keycenter=F2
sample=Horn_staccato_FF_F2_RR3.opus
</region>

<region>
hivel=127
key=F3
lovel=85
sample=Horn_staccato_FF_F3_RR3.opus
</region>

<region>
hivel=127
key=F4
lovel=85
sample=Horn_staccato_FF_F4_RR3.opus
</region>

<region>
hikey=A#5
hivel=127
lokey=F5
lovel=85
pitch_keycenter=F5
sample=Horn_staccato_FF_F5_RR3.opus
</region>

<region>
hivel=127
key=G#2
lovel=85
sample=Horn_staccato_FF_G#2_RR3.opus
</region>

<region>
hivel=127
key=G#3
lovel=85
sample=Horn_staccato_FF_G#3_RR3.opus
</region>

<region>
hivel=127
key=G#4
lovel=85
sample=Horn_staccato_FF_G#4_RR3.opus
</region>

<region>
hivel=127
key=G2
lovel=85
sample=Horn_staccato_FF_G2_RR3.opus
</region>

<region>
hivel=127
key=G3
lovel=85
sample=Horn_staccato_FF_G3_RR3.opus
</region>

<region>
hivel=127
key=G4
lovel=85
sample=Horn_staccato_FF_G4_RR3.opus
</region>

<region>
hivel=84
key=A#2
lovel=43
sample=Horn_staccato_MF_A#2_RR3.opus
</region>

<region>
hivel=84
key=A#3
lovel=43
sample=Horn_staccato_MF_A#3_RR3.opus
</region>

<region>
hivel=84
key=A#4
lovel=43
sample=Horn_staccato_MF_A#4_RR3.opus
</region>

<region>
hivel=84
key=A2
lovel=43
sample=Horn_staccato_MF_A2_RR3.opus
</region>

<region>
hivel=84
key=A3
lovel=43
sample=Horn_staccato_MF_A3_RR3.opus
</region>

<region>
hivel=84
key=A4
lovel=43
sample=Horn_staccato_MF_A4_RR3.opus
</region>

<region>
hivel=84
key=B2
lovel=43
sample=Horn_staccato_MF_B2_RR3.opus
</region>

<region>
hivel=84
key=B3
lovel=43
sample=Horn_staccato_MF_B3_RR3.opus
</region>

<region>
hivel=84
key=B4
lovel=43
sample=Horn_staccato_MF_B4_RR3.opus
</region>

<region>
hivel=84
key=C#3
lovel=43
sample=Horn_staccato_MF_C#3_RR3.opus
</region>

<region>
hivel=84
key=C#4
lovel=43
sample=Horn_staccato_MF_C#4_RR3.opus
</region>

<region>
hivel=84
key=C#5
lovel=43
sample=Horn_staccato_MF_C#5_RR3.opus
</region>

<region>
hivel=84
key=C3
lovel=43
sample=Horn_staccato_MF_C3_RR3.opus
</region>

<region>
hivel=84
key=C4
lovel=43
sample=Horn_staccato_MF_C4_RR3.opus
</region>

<region>
hivel=84
key=C5
lovel=43
sample=Horn_staccato_MF_C5_RR3.opus
</region>

<region>
hivel=84
key=D#3
lovel=43
sample=Horn_staccato_MF_D#3_RR3.opus
</region>

<region>
hivel=84
key=D#4
lovel=43
sample=Horn_staccato_MF_D#4_RR3.opus
</region>

<region>
hivel=84
key=D#5
lovel=43
sample=Horn_staccato_MF_D#5_RR3.opus
</region>

<region>
hivel=84
key=D3
lovel=43
sample=Horn_staccato_MF_D3_RR3.opus
</region>

<region>
hivel=84
key=D4
lovel=43
sample=Horn_staccato_MF_D4_RR3.opus
</region>

<region>
hivel=84
key=D5
lovel=43
sample=Horn_staccato_MF_D5_RR3.opus
</region>

<region>
hivel=84
key=E3
lovel=43
sample=Horn_staccato_MF_E3_RR3.opus
</region>

<region>
hivel=84
key=E4
lovel=43
sample=Horn_staccato_MF_E4_RR3.opus
</region>

<region>
hivel=84
key=E5
lovel=43
sample=Horn_staccato_MF_E5_RR3.opus
</region>

<region>
hivel=84
key=F#2
lovel=43
sample=Horn_staccato_MF_F#2_RR3.opus
</region>

<region>
hivel=84
key=F#3
lovel=43
sample=Horn_staccato_MF_F#3_RR3.opus
</region>

<region>
hivel=84
key=F#4
lovel=43
sample=Horn_staccato_MF_F#4_RR3.opus
</region>

<region>
hikey=F2
hivel=84
lokey=C2
lovel=43
pitch_keycenter=F2
sample=Horn_staccato_MF_F2_RR3.opus
</region>

<region>
hivel=84
key=F3
lovel=43
sample=Horn_staccato_MF_F3_RR3.opus
</region>

<region>
hivel=84
key=F4
lovel=43
sample=Horn_staccato_MF_F4_RR3.opus
</region>

<region>
hikey=A#5
hivel=84
lokey=F5
lovel=43
pitch_keycenter=F5
sample=Horn_staccato_MF_F5_RR3.opus
</region>

<region>
hivel=84
key=G#2
lovel=43
sample=Horn_staccato_MF_G#2_RR3.opus
</region>

<region>
hivel=84
key=G#3
lovel=43
sample=Horn_staccato_MF_G#3_RR3.opus
</region>

<region>
hivel=84
key=G#4
lovel=43
sample=Horn_staccato_MF_G#4_RR3.opus
</region>

<region>
hivel=84
key=G2
lovel=43
sample=Horn_staccato_MF_G2_RR3.opus
</region>

<region>
hivel=84
key=G3
lovel=43
sample=Horn_staccato_MF_G3_RR3.opus
</region>

<region>
hivel=84
key=G4
lovel=43
sample=Horn_staccato_MF_G4_RR3.opus
</region>

<region>
hivel=42
key=A#2
lovel=0
sample=Horn_staccato_PP_A#2_RR3.opus
</region>

<region>
hivel=42
key=A#3
lovel=0
sample=Horn_staccato_PP_A#3_RR3.opus
</region>

<region>
hivel=42
key=A#4
lovel=0
sample=Horn_staccato_PP_A#4_RR3.opus
</region>

<region>
hivel=42
key=A2
lovel=0
sample=Horn_staccato_PP_A2_RR3.opus
</region>

<region>
hivel=42
key=A3
lovel=0
sample=Horn_staccato_PP_A3_RR3.opus
</region>

<region>
hivel=42
key=A4
lovel=0
sample=Horn_staccato_PP_A4_RR3.opus
</region>

<region>
hivel=42
key=B2
lovel=0
sample=Horn_staccato_PP_B2_RR3.opus
</region>

<region>
hivel=42
key=B3
lovel=0
sample=Horn_staccato_PP_B3_RR3.opus
</region>

<region>
hivel=42
key=B4
lovel=0
sample=Horn_staccato_PP_B4_RR3.opus
</region>

<region>
hivel=42
key=C#3
lovel=0
sample=Horn_staccato_PP_C#3_RR3.opus
</region>

<region>
hivel=42
key=C#4
lovel=0
sample=Horn_staccato_PP_C#4_RR3.opus
</region>

<region>
hivel=42
key=C#5
lovel=0
sample=Horn_staccato_PP_C#5_RR3.opus
</region>

<region>
hivel=42
key=C3
lovel=0
sample=Horn_staccato_PP_C3_RR3.opus
</region>

<region>
hivel=42
key=C4
lovel=0
sample=Horn_staccato_PP_C4_RR3.opus
</region>

<region>
hivel=42
key=C5
lovel=0
sample=Horn_staccato_PP_C5_RR3.opus
</region>

<region>
hivel=42
key=D#3
lovel=0
sample=Horn_staccato_PP_D#3_RR3.opus
</region>

<region>
hivel=42
key=D#4
lovel=0
sample=Horn_staccato_PP_D#4_RR3.opus
</region>

<region>
hivel=42
key=D#5
lovel=0
sample=Horn_staccato_PP_D#5_RR3.opus
</region>

<region>
hivel=42
key=D3
lovel=0
sample=Horn_staccato_PP_D3_RR3.opus
</region>

<region>
hivel=42
key=D4
lovel=0
sample=Horn_staccato_PP_D4_RR3.opus
</region>

<region>
hivel=42
key=D5
lovel=0
sample=Horn_staccato_PP_D5_RR3.opus
</region>

<region>
hivel=42
key=E3
lovel=0
sample=Horn_staccato_PP_E3_RR3.opus
</region>

<region>
hivel=42
key=E4
lovel=0
sample=Horn_staccato_PP_E4_RR3.opus
</region>

<region>
hivel=42
key=E5
lovel=0
sample=Horn_staccato_PP_E5_RR3.opus
</region>

<region>
hivel=42
key=F#2
lovel=0
sample=Horn_staccato_PP_F#2_RR3.opus
</region>

<region>
hivel=42
key=F#3
lovel=0
sample=Horn_staccato_PP_F#3_RR3.opus
</region>

<region>
hivel=42
key=F#4
lovel=0
sample=Horn_staccato_PP_F#4_RR3.opus
</region>

<region>
hikey=F2
hivel=42
lokey=C2
lovel=0
pitch_keycenter=F2
sample=Horn_staccato_PP_F2_RR3.opus
</region>

<region>
hivel=42
key=F3
lovel=0
sample=Horn_staccato_PP_F3_RR3.opus
</region>

<region>
hivel=42
key=F4
lovel=0
sample=Horn_staccato_PP_F4_RR3.opus
</region>

<region>
hikey=A#5
hivel=42
lokey=F5
lovel=0
pitch_keycenter=F5
sample=Horn_staccato_PP_F5_RR3.opus
</region>

<region>
hivel=42
key=G#2
lovel=0
sample=Horn_staccato_PP_G#2_RR3.opus
</region>

<region>
hivel=42
key=G#3
lovel=0
sample=Horn_staccato_PP_G#3_RR3.opus
</region>

<region>
hivel=42
key=G#4
lovel=0
sample=Horn_staccato_PP_G#4_RR3.opus
</region>

<region>
hivel=42
key=G2
lovel=0
sample=Horn_staccato_PP_G2_RR3.opus
</region>

<region>
hivel=42
key=G3
lovel=0
sample=Horn_staccato_PP_G3_RR3.opus
</region>

<region>
hivel=42
key=G4
lovel=0
sample=Horn_staccato_PP_G4_RR3.opus
</region>
</group>

<group>
group_label=RR4
seq_length=4
seq_position=4

<region>
hivel=127
key=A#2
lovel=85
sample=Horn_staccato_FF_A#2_RR4.opus
</region>

<region>
hivel=127
key=A#3
lovel=85
sample=Horn_staccato_FF_A#3_RR4.opus
</region>

<region>
hivel=127
key=A#4
lovel=85
sample=Horn_staccato_FF_A#4_RR4.opus
</region>

<region>
hivel=127
key=A2
lovel=85
sample=Horn_staccato_FF_A2_RR4.opus
</region>

<region>
hivel=127
key=A3
lovel=85
sample=Horn_staccato_FF_A3_RR4.opus
</region>

<region>
hivel=127
key=A4
lovel=85
sample=Horn_staccato_FF_A4_RR4.opus
</region>

<region>
hivel=127
key=B2
lovel=85
sample=Horn_staccato_FF_B2_RR4.opus
</region>

<region>
hivel=127
key=B3
lovel=85
sample=Horn_staccato_FF_B3_RR4.opus
</region>

<region>
hivel=127
key=B4
lovel=85
sample=Horn_staccato_FF_B4_RR4.opus
</region>

<region>
hivel=127
key=C#3
lovel=85
sample=Horn_staccato_FF_C#3_RR4.opus
</region>

<region>
hivel=127
key=C#4
lovel=85
sample=Horn_staccato_FF_C#4_RR4.opus
</region>

<region>
hivel=127
key=C#5
lovel=85
sample=Horn_staccato_FF_C#5_RR4.opus
</region>

<region>
hivel=127
key=C3
lovel=85
sample=Horn_staccato_FF_C3_RR4.opus
</region>

<region>
hivel=127
key=C4
lovel=85
sample=Horn_staccato_FF_C4_RR4.opus
</region>

<region>
hivel=127
key=C5
lovel=85
sample=Horn_staccato_FF_C5_RR4.opus
</region>

<region>
hivel=127
key=D#3
lovel=85
sample=Horn_staccato_FF_D#3_RR4.opus
</region>

<region>
hivel=127
key=D#4
lovel=85
sample=Horn_staccato_FF_D#4_RR4.opus
</region>

<region>
hivel=127
key=D#5
lovel=85
sample=Horn_staccato_FF_D#5_RR4.opus
</region>

<region>
hivel=127
key=D3
lovel=85
sample=Horn_staccato_FF_D3_RR4.opus
</region>

<region>
hivel=127
key=D4
lovel=85
sample=Horn_staccato_FF_D4_RR4.opus
</region>

<region>
hivel=127
key=D5
lovel=85
sample=Horn_staccato_FF_D5_RR4.opus
</region>

<region>
hivel=127
key=E3
lovel=85
sample=Horn_staccato_FF_E3_RR4.opus
</region>

<region>
hivel=127
key=E4
lovel=85
sample=Horn_staccato_FF_E4_RR4.opus
</region>

<region>
hivel=127
key=E5
lovel=85
sample=Horn_staccato_FF_E5_RR4.opus
</region>

<region>
hivel=127
key=F#2
lovel=85
sample=Horn_staccato_FF_F#2_RR4.opus
</region>

<region>
hivel=127
key=F#3
lovel=85
sample=Horn_staccato_FF_F#3_RR4.opus
</region>

<region>
hivel=127
key=F#4
lovel=85
sample=Horn_staccato_FF_F#4_RR4.opus
</region>

<region>
hikey=F2
hivel=127
lokey=C2
lovel=85
pitch_keycenter=F2
sample=Horn_staccato_FF_F2_RR4.opus
</region>

<region>
hivel=127
key=F3
lovel=85
sample=Horn_staccato_FF_F3_RR4.opus
</region>

<region>
hivel=127
key=F4
lovel=85
sample=Horn_staccato_FF_F4_RR4.opus
</region>

<region>
hikey=A#5
hivel=127
lokey=F5
lovel=85
pitch_keycenter=F5
sample=Horn_staccato_FF_F5_RR4.opus
</region>

<region>
hivel=127
key=G#2
lovel=85
sample=Horn_staccato_FF_G#2_RR4.opus
</region>

<region>
hivel=127
key=G#3
lovel=85
sample=Horn_staccato_FF_G#3_RR4.opus
</region>

<region>
hivel=127
key=G#4
lovel=85
sample=Horn_staccato_FF_G#4_RR4.opus
</region>

<region>
hivel=127
key=G2
lovel=85
sample=Horn_staccato_FF_G2_RR4.opus
</region>

<region>
hivel=127
key=G3
lovel=85
sample=Horn_staccato_FF_G3_RR4.opus
</region>

<region>
hivel=127
key=G4
lovel=85
sample=Horn_staccato_FF_G4_RR4.opus
</region>

<region>
hivel=84
key=A#2
lovel=43
sample=Horn_staccato_MF_A#2_RR4.opus
</region>

<region>
hivel=84
key=A#3
lovel=43
sample=Horn_staccato_MF_A#3_RR4.opus
</region>

<region>
hivel=84
key=A#4
lovel=43
sample=Horn_staccato_MF_A#4_RR4.opus
</region>

<region>
hivel=84
key=A2
lovel=43
sample=Horn_staccato_MF_A2_RR4.opus
</region>

<region>
hivel=84
key=A3
lovel=43
sample=Horn_staccato_MF_A3_RR4.opus
</region>

<region>
hivel=84
key=A4
lovel=43
sample=Horn_staccato_MF_A4_RR4.opus
</region>

<region>
hivel=84
key=B2
lovel=43
sample=Horn_staccato_MF_B2_RR4.opus
</region>

<region>
hivel=84
key=B3
lovel=43
sample=Horn_staccato_MF_B3_RR4.opus
</region>

<region>
hivel=84
key=B4
lovel=43
sample=Horn_staccato_MF_B4_RR4.opus
</region>

<region>
hivel=84
key=C#3
lovel=43
sample=Horn_staccato_MF_C#3_RR4.opus
</region>

<region>
hivel=84
key=C#4
lovel=43
sample=Horn_staccato_MF_C#4_RR4.opus
</region>

<region>
hivel=84
key=C#5
lovel=43
sample=Horn_staccato_MF_C#5_RR4.opus
</region>

<region>
hivel=84
key=C3
lovel=43
sample=Horn_staccato_MF_C3_RR4.opus
</region>

<region>
hivel=84
key=C4
lovel=43
sample=Horn_staccato_MF_C4_RR4.opus
</region>

<region>
hivel=84
key=C5
lovel=43
sample=Horn_staccato_MF_C5_RR4.opus
</region>

<region>
hivel=84
key=D#3
lovel=43
sample=Horn_staccato_MF_D#3_RR4.opus
</region>

<region>
hivel=84
key=D#4
lovel=43
sample=Horn_staccato_MF_D#4_RR4.opus
</region>

<region>
hivel=84
key=D#5
lovel=43
sample=Horn_staccato_MF_D#5_RR4.opus
</region>

<region>
hivel=84
key=D3
lovel=43
sample=Horn_staccato_MF_D3_RR4.opus
</region>

<region>
hivel=84
key=D4
lovel=43
sample=Horn_staccato_MF_D4_RR4.opus
</region>

<region>
hivel=84
key=D5
lovel=43
sample=Horn_staccato_MF_D5_RR4.opus
</region>

<region>
hivel=84
key=E3
lovel=43
sample=Horn_staccato_MF_E3_RR4.opus
</region>

<region>
hivel=84
key=E4
lovel=43
sample=Horn_staccato_MF_E4_RR4.opus
</region>

<region>
hivel=84
key=E5
lovel=43
sample=Horn_staccato_MF_E5_RR4.opus
</region>

<region>
hivel=84
key=F#2
lovel=43
sample=Horn_staccato_MF_F#2_RR4.opus
</region>

<region>
hivel=84
key=F#3
lovel=43
sample=Horn_staccato_MF_F#3_RR4.opus
</region>

<region>
hivel=84
key=F#4
lovel=43
sample=Horn_staccato_MF_F#4_RR4.opus
</region>

<region>
hikey=F2
hivel=84
lokey=C2
lovel=43
pitch_keycenter=F2
sample=Horn_staccato_MF_F2_RR4.opus
</region>

<region>
hivel=84
key=F3
lovel=43
sample=Horn_staccato_MF_F3_RR4.opus
</region>

<region>
hivel=84
key=F4
lovel=43
sample=Horn_staccato_MF_F4_RR4.opus
</region>

<region>
hikey=A#5
hivel=84
lokey=F5
lovel=43
pitch_keycenter=F5
sample=Horn_staccato_MF_F5_RR4.opus
</region>

<region>
hivel=84
key=G#2
lovel=43
sample=Horn_staccato_MF_G#2_RR4.opus
</region>

<region>
hivel=84
key=G#3
lovel=43
sample=Horn_staccato_MF_G#3_RR4.opus
</region>

<region>
hivel=84
key=G#4
lovel=43
sample=Horn_staccato_MF_G#4_RR4.opus
</region>

<region>
hivel=84
key=G2
lovel=43
sample=Horn_staccato_MF_G2_RR4.opus
</region>

<region>
hivel=84
key=G3
lovel=43
sample=Horn_staccato_MF_G3_RR4.opus
</region>

<region>
hivel=84
key=G4
lovel=43
sample=Horn_staccato_MF_G4_RR4.opus
</region>

<region>
hivel=42
key=A#2
lovel=0
sample=Horn_staccato_PP_A#2_RR4.opus
</region>

<region>
hivel=42
key=A#3
lovel=0
sample=Horn_staccato_PP_A#3_RR4.opus
</region>

<region>
hivel=42
key=A#4
lovel=0
sample=Horn_staccato_PP_A#4_RR4.opus
</region>

<region>
hivel=42
key=A2
lovel=0
sample=Horn_staccato_PP_A2_RR4.opus
</region>

<region>
hivel=42
key=A3
lovel=0
sample=Horn_staccato_PP_A3_RR4.opus
</region>

<region>
hivel=42
key=A4
lovel=0
sample=Horn_staccato_PP_A4_RR4.opus
</region>

<region>
hivel=42
key=B2
lovel=0
sample=Horn_staccato_PP_B2_RR4.opus
</region>

<region>
hivel=42
key=B3
lovel=0
sample=Horn_staccato_PP_B3_RR4.opus
</region>

<region>
hivel=42
key=B4
lovel=0
sample=Horn_staccato_PP_B4_RR4.opus
</region>

<region>
hivel=42
key=C#3
lovel=0
sample=Horn_staccato_PP_C#3_RR4.opus
</region>

<region>
hivel=42
key=C#4
lovel=0
sample=Horn_staccato_PP_C#4_RR4.opus
</region>

<region>
hivel=42
key=C#5
lovel=0
sample=Horn_staccato_PP_C#5_RR4.opus
</region>

<region>
hivel=42
key=C3
lovel=0
sample=Horn_staccato_PP_C3_RR4.opus
</region>

<region>
hivel=42
key=C4
lovel=0
sample=Horn_staccato_PP_C4_RR4.opus
</region>

<region>
hivel=42
key=C5
lovel=0
sample=Horn_staccato_PP_C5_RR4.opus
</region>

<region>
hivel=42
key=D#3
lovel=0
sample=Horn_staccato_PP_D#3_RR4.opus
</region>

<region>
hivel=42
key=D#4
lovel=0
sample=Horn_staccato_PP_D#4_RR4.opus
</region>

<region>
hivel=42
key=D#5
lovel=0
sample=Horn_staccato_PP_D#5_RR4.opus
</region>

<region>
hivel=42
key=D3
lovel=0
sample=Horn_staccato_PP_D3_RR4.opus
</region>

<region>
hivel=42
key=D4
lovel=0
sample=Horn_staccato_PP_D4_RR4.opus
</region>

<region>
hivel=42
key=D5
lovel=0
sample=Horn_staccato_PP_D5_RR4.opus
</region>

<region>
hivel=42
key=E3
lovel=0
sample=Horn_staccato_PP_E3_RR4.opus
</region>

<region>
hivel=42
key=E4
lovel=0
sample=Horn_staccato_PP_E4_RR4.opus
</region>

<region>
hivel=42
key=E5
lovel=0
sample=Horn_staccato_PP_E5_RR4.opus
</region>

<region>
hivel=42
key=F#2
lovel=0
sample=Horn_staccato_PP_F#2_RR4.opus
</region>

<region>
hivel=42
key=F#3
lovel=0
sample=Horn_staccato_PP_F#3_RR4.opus
</region>

<region>
hivel=42
key=F#4
lovel=0
sample=Horn_staccato_PP_F#4_RR4.opus
</region>

<region>
hikey=F2
hivel=42
lokey=C2
lovel=0
pitch_keycenter=F2
sample=Horn_staccato_PP_F2_RR4.opus
</region>

<region>
hivel=42
key=F3
lovel=0
sample=Horn_staccato_PP_F3_RR4.opus
</region>

<region>
hivel=42
key=F4
lovel=0
sample=Horn_staccato_PP_F4_RR4.opus
</region>

<region>
hikey=A#5
hivel=42
lokey=F5
lovel=0
pitch_keycenter=F5
sample=Horn_staccato_PP_F5_RR4.opus
</region>

<region>
hivel=42
key=G#2
lovel=0
sample=Horn_staccato_PP_G#2_RR4.opus
</region>

<region>
hivel=42
key=G#3
lovel=0
sample=Horn_staccato_PP_G#3_RR4.opus
</region>

<region>
hivel=42
key=G#4
lovel=0
sample=Horn_staccato_PP_G#4_RR4.opus
</region>

<region>
hivel=42
key=G2
lovel=0
sample=Horn_staccato_PP_G2_RR4.opus
</region>

<region>
hivel=42
key=G3
lovel=0
sample=Horn_staccato_PP_G3_RR4.opus
</region>

<region>
hivel=42
key=G4
lovel=0
sample=Horn_staccato_PP_G4_RR4.opus
</region>
</group>